<svg width="124" height="17" viewBox="0 0 124 17" fill="none" xmlns="http://www.w3.org/2000/svg">
<path d="M3.41588 16H0.049875V0.511999H3.41588V6.562H9.68588V0.511999H13.0519V16H9.68588V9.576H3.41588V16ZM21.1975 4.362C22.8842 4.362 24.2555 4.912 25.3115 6.012C26.3822 7.09733 26.9175 8.53467 26.9175 10.324C26.9175 12.1133 26.3822 13.5507 25.3115 14.636C24.2555 15.7213 22.8842 16.264 21.1975 16.264C19.4962 16.264 18.1102 15.7213 17.0395 14.636C15.9835 13.5507 15.4555 12.1133 15.4555 10.324C15.4555 8.53467 15.9835 7.09733 17.0395 6.012C18.1102 4.912 19.4962 4.362 21.1975 4.362ZM21.1975 13.492C21.9602 13.492 22.5689 13.1987 23.0235 12.612C23.4782 12.0253 23.7055 11.2627 23.7055 10.324C23.7055 9.37067 23.4782 8.60067 23.0235 8.014C22.5835 7.42733 21.9749 7.134 21.1975 7.134C20.4202 7.134 19.8042 7.42733 19.3495 8.014C18.8949 8.60067 18.6675 9.37067 18.6675 10.324C18.6675 11.2627 18.8949 12.0253 19.3495 12.612C19.8042 13.1987 20.4202 13.492 21.1975 13.492ZM45.2222 4.626L41.6802 16H38.5342L36.4222 8.542L34.3322 16H31.2082L27.6882 4.626H30.9442L32.9242 11.578L34.9042 4.626H38.0062L39.9862 11.6L41.9442 4.626H45.2222ZM62.3475 16H58.9815V0.511999H62.3475V6.562H68.6175V0.511999H71.9835V16H68.6175V9.576H62.3475V16ZM80.1292 4.362C81.8159 4.362 83.1872 4.912 84.2432 6.012C85.3139 7.09733 85.8492 8.53467 85.8492 10.324C85.8492 12.1133 85.3139 13.5507 84.2432 14.636C83.1872 15.7213 81.8159 16.264 80.1292 16.264C78.4279 16.264 77.0419 15.7213 75.9712 14.636C74.9152 13.5507 74.3872 12.1133 74.3872 10.324C74.3872 8.53467 74.9152 7.09733 75.9712 6.012C77.0419 4.912 78.4279 4.362 80.1292 4.362ZM80.1292 13.492C80.8919 13.492 81.5005 13.1987 81.9552 12.612C82.4099 12.0253 82.6372 11.2627 82.6372 10.324C82.6372 9.37067 82.4099 8.60067 81.9552 8.014C81.5152 7.42733 80.9065 7.134 80.1292 7.134C79.3519 7.134 78.7359 7.42733 78.2812 8.014C77.8265 8.60067 77.5992 9.37067 77.5992 10.324C77.5992 11.2627 77.8265 12.0253 78.2812 12.612C78.7359 13.1987 79.3519 13.492 80.1292 13.492ZM90.5092 12.634C90.6852 13.4407 91.3452 13.844 92.4892 13.844C93.0172 13.844 93.4279 13.7413 93.7212 13.536C94.0146 13.316 94.1612 13.03 94.1612 12.678C94.1612 12.15 93.7432 11.8273 92.9072 11.71L90.9712 11.49C88.6832 11.2113 87.5392 10.0967 87.5392 8.146C87.5392 7.03133 87.9866 6.122 88.8812 5.418C89.7759 4.714 90.9126 4.362 92.2912 4.362C93.6259 4.362 94.7186 4.67733 95.5692 5.308C96.4346 5.93867 96.9406 6.81133 97.0872 7.926H93.9852C93.7652 7.178 93.1712 6.804 92.2032 6.804C91.7339 6.804 91.3526 6.914 91.0592 7.134C90.7806 7.33933 90.6412 7.596 90.6412 7.904C90.6412 8.44667 91.0372 8.762 91.8292 8.85L93.8532 9.092C94.9092 9.224 95.7452 9.56867 96.3612 10.126C96.9772 10.6833 97.2852 11.468 97.2852 12.48C97.2852 13.668 96.8379 14.5993 95.9432 15.274C95.0486 15.934 93.8972 16.264 92.4892 16.264C91.1106 16.264 89.9446 15.956 88.9912 15.34C88.0379 14.724 87.5026 13.822 87.3852 12.634H90.5092ZM103.303 11.776C103.303 12.348 103.428 12.744 103.677 12.964C103.927 13.1693 104.308 13.272 104.821 13.272H105.481V16.022H104.249C102.812 16.022 101.756 15.714 101.081 15.098C100.421 14.4673 100.091 13.4407 100.091 12.018V7.244H98.3534V4.626H100.091V1.722H103.303V4.626H105.481V7.244H103.303V11.776ZM117.805 11.226H110.127V11.27C110.127 11.974 110.362 12.5607 110.831 13.03C111.315 13.4993 111.938 13.734 112.701 13.734C113.2 13.734 113.618 13.6313 113.955 13.426C114.292 13.2207 114.505 12.9933 114.593 12.744H117.695C117.519 13.668 116.998 14.4893 116.133 15.208C115.282 15.912 114.116 16.264 112.635 16.264C110.89 16.264 109.496 15.7433 108.455 14.702C107.414 13.646 106.893 12.2013 106.893 10.368C106.893 8.53467 107.399 7.07533 108.411 5.99C109.438 4.90467 110.787 4.362 112.459 4.362C114.087 4.362 115.385 4.88267 116.353 5.924C117.321 6.96533 117.805 8.366 117.805 10.126V11.226ZM112.481 6.87C111.836 6.87 111.308 7.06067 110.897 7.442C110.486 7.80867 110.237 8.322 110.149 8.982H114.681C114.637 8.33667 114.417 7.82333 114.021 7.442C113.625 7.06067 113.112 6.87 112.481 6.87ZM123.182 0.00599873V16H119.97V0.00599873H123.182Z" fill="black"/>
<path d="M53.2622 4.604C53.2622 4.13467 53.0935 3.768 52.7562 3.504C52.4189 3.22533 51.9642 3.086 51.3922 3.086C50.7909 3.086 50.2922 3.23267 49.8962 3.526C49.5149 3.81933 49.2655 4.23 49.1482 4.758H46.1342C46.2222 3.45267 46.7502 2.37467 47.7182 1.524C48.6862 0.673333 49.9329 0.248 51.4582 0.248C53.0129 0.248 54.2302 0.643999 55.1102 1.436C56.0049 2.228 56.4522 3.22533 56.4522 4.428C56.4522 4.66267 56.4375 4.89 56.4082 5.11C56.3789 5.31533 56.3422 5.506 56.2982 5.682C56.2689 5.84333 56.2029 6.012 56.1002 6.188C56.0122 6.364 55.9462 6.50333 55.9022 6.606C55.8582 6.70867 55.7629 6.83333 55.6162 6.98C55.4695 7.12667 55.3669 7.22933 55.3082 7.288C55.2642 7.34667 55.1469 7.442 54.9562 7.574C54.7802 7.706 54.6775 7.78667 54.6482 7.816C54.6189 7.83067 54.4942 7.904 54.2742 8.036C54.0689 8.168 53.9589 8.24133 53.9442 8.256C53.6215 8.46133 53.3942 8.61533 53.2622 8.718C53.1449 8.806 52.9909 8.94533 52.8002 9.136C52.6242 9.312 52.5069 9.50267 52.4482 9.708C52.3895 9.91333 52.3602 10.1627 52.3602 10.456V10.874H49.4122V10.126C49.4122 9.202 49.5809 8.50533 49.9182 8.036C50.2555 7.552 50.8129 7.06067 51.5902 6.562C52.3382 6.078 52.8002 5.71867 52.9762 5.484C53.1669 5.20533 53.2622 4.912 53.2622 4.604ZM50.9742 12.436C51.5169 12.436 51.9715 12.6193 52.3382 12.986C52.7049 13.3527 52.8882 13.8073 52.8882 14.35C52.8882 14.8927 52.7049 15.3473 52.3382 15.714C51.9715 16.0807 51.5169 16.264 50.9742 16.264C50.4169 16.264 49.9475 16.0807 49.5662 15.714C49.1995 15.3473 49.0162 14.8927 49.0162 14.35C49.0162 13.8073 49.1995 13.3527 49.5662 12.986C49.9475 12.6193 50.4169 12.436 50.9742 12.436Z" fill="#EC6B3E"/>
</svg>
